<?xml version="1.0" encoding="utf-8"?>
<!-- Generator: Adobe Illustrator 16.0.0, SVG Export Plug-In . SVG Version: 6.00 Build 0)  -->
<!DOCTYPE svg PUBLIC "-//W3C//DTD SVG 1.1//EN" "http://www.w3.org/Graphics/SVG/1.1/DTD/svg11.dtd">
<svg version="1.1" id="Layer_1" xmlns="http://www.w3.org/2000/svg" xmlns:xlink="http://www.w3.org/1999/xlink" x="0px" y="0px"
	 width="1069px" height="686.5px" viewBox="0 0 1069 686.5" enable-background="new 0 0 1069 686.5" xml:space="preserve">
<g>
	<circle fill="#66CADD" cx="347.769" cy="345.666" r="205"/>
	<!-- relleno -->
	<circle fill="none" stroke="#000000" stroke-width="5" stroke-miterlimit="10" stroke-dasharray="100,15,5,75,15,75" stroke-linecap="round" cx="347.769" cy="345.666" r="335"/>
	<!-- primer circulo -->
	<circle fill="none" stroke="#96D7E4" stroke-width="4" stroke-miterlimit="10" stroke-dasharray="15,15" cx="347.769" cy="345.666" r="320"/>
	<!-- segundo circulo -->
	<circle fill="none" stroke="#000000" stroke-width="15" stroke-miterlimit="10" stroke-dasharray="305,305" cx="347.769" cy="345.665" r="297.5"/>
	<!-- tercero -->
	<circle fill="none" stroke="#000000" stroke-width="3" stroke-miterlimit="10"  cx="347.769" cy="345.666" r="290"/>
	<!-- cuarto circulo -->
	<circle fill="none" stroke="#96D7E4" stroke-width="4" stroke-miterlimit="10" stroke-dasharray="45,10,30,20,15,20" cx="347.769" cy="345.666" r="267.5"/>
	<!-- quinto circulo -->
	<circle fill="none" stroke="#66CADD" stroke-width="25" stroke-miterlimit="10" stroke-dasharray="390,390" cx="347.769" cy="345.665" r="240.5"/>
	<!-- sexto -->
	<circle fill="none" stroke="#66CADD" stroke-width="4" stroke-miterlimit="10"   cx="347.769" cy="345.665" r="230"/>
	<!-- septimo -->
	<circle fill="none" stroke="#000000" stroke-width="10" stroke-miterlimit="10" stroke-dasharray="62,50" cx="347.769" cy="345.665" r="215"/>
	<!-- octavo -->
	<circle fill="none" stroke="#000000" stroke-width="3" stroke-miterlimit="10" cx="347.769" cy="345.665" r="215"/>
	<!-- noveno -->
	<!-- <circle fill="none" stroke="#96D7E4" stroke-width="4" stroke-miterlimit="10" cx="347.769" cy="345.666" r="192.5"/> -->
	<!-- decimo -->
	<g>
		<polyline fill="none" stroke="#66CADD" stroke-width="3" stroke-miterlimit="10" points="573.293,92.063 693.767,92.063 
			765,159.948 1064.012,160.12 		"/>
		<circle fill="#66CADD" cx="573.293" cy="92.063" r="2.811"/>
	</g>
	<g>
		<polyline fill="none" stroke="#66CADD" stroke-width="3" stroke-miterlimit="10" points="605.596,125.773 619.82,125.773 
			642.381,148.312 1018.039,148.312 1064.005,194.294 		"/>
		<circle fill="#66CADD" cx="605.595" cy="125.773" r="2.811"/>
	</g>
	<g>
		<polyline fill="none" stroke="#000000" stroke-width="3" stroke-miterlimit="10" points="653.611,202.23 1037,202.23 
			1065.232,229.5 		"/>
		<circle cx="653.611" cy="202.23" r="2.811"/>
	</g>
	<g>
		<polyline fill="none" stroke="#66CADD" stroke-width="3" stroke-miterlimit="10" points="643.487,182.028 669.842,182.028 
			713.197,225.401 987.25,225.401 1062.684,302.035 		"/>
		<circle fill="#66CADD" cx="643.487" cy="182.028" r="2.812"/>
	</g>
	<g>
		<polyline fill="none" stroke="#000000" stroke-width="3" stroke-miterlimit="10" points="667.545,237.65 677.183,237.65 
			700.9,261.377 841.18,261.377 898.488,318.683 1061.663,319.152 		"/>
		<circle cx="667.544" cy="237.65" r="2.811"/>
	</g>
	<g>
		
			<line fill="none" stroke="#000000" stroke-width="3" stroke-miterlimit="10" x1="671.953" y1="252.107" x2="1065.232" y2="252.107"/>
		<circle cx="671.953" cy="252.107" r="2.811"/>
	</g>
	<g>
		<polyline fill="none" stroke="#000000" stroke-width="3" stroke-miterlimit="10" points="684.563,344.707 873.162,344.707 
			887.5,358.854 1061.663,358.854 		"/>
		<circle cx="684.563" cy="344.707" r="2.812"/>
	</g>
	<g>
		<g>
			<polyline fill="none" stroke="#66CADD" stroke-width="3" stroke-miterlimit="10" points="681.073,295.267 719.866,334.008 
				940.804,334.008 1063.393,211.436 			"/>
		</g>
		<circle fill="#66CADD" cx="681.073" cy="295.267" r="2.811"/>
	</g>
	<g>
		
			<line fill="none" stroke="#66CADD" stroke-width="3" stroke-miterlimit="10" x1="682.934" y1="389.666" x2="1063.39" y2="389.666"/>
		<circle fill="#66CADD" cx="682.206" cy="389.666" r="2.812"/>
	</g>
	<g>
		
			<line fill="none" stroke="#000000" stroke-width="3" stroke-miterlimit="10" x1="679.395" y1="403.623" x2="1064.012" y2="403.623"/>
		<circle cx="679.395" cy="403.623" r="2.811"/>
	</g>
	<g>
		
			<line fill="none" stroke="#66CADD" stroke-width="3" stroke-miterlimit="10" x1="676.576" y1="417.762" x2="1063.012" y2="417.762"/>
		<circle fill="#66CADD" cx="676.576" cy="417.762" r="2.811"/>
	</g>
	<g>
		<polyline fill="none" stroke="#000000" stroke-width="3" stroke-miterlimit="10" points="660.253,471.547 717.908,471.547 
			764,432.5 1062.684,432.5 		"/>
		<circle cx="660.253" cy="471.547" r="2.812"/>
	</g>
	<g>
		<polyline fill="none" stroke="#000000" stroke-width="3" stroke-miterlimit="10" points="643.374,506.511 994.773,506.511 
			1064.012,437.273 		"/>
		<circle cx="643.374" cy="506.511" r="2.812"/>
	</g>
	<g>
		<polyline fill="none" stroke="#66CADD" stroke-width="3" stroke-miterlimit="10" points="667.986,452.023 728,452.023 
			752.803,475.719 1064.005,475.719 		"/>
		<circle fill="#66CADD" cx="667.986" cy="450.381" r="2.811"/>
	</g>
	<g>
		
			<line fill="none" stroke="#66CADD" stroke-width="3" stroke-miterlimit="10" x1="633.753" y1="522.164" x2="1063.012" y2="522.164"/>
		<circle fill="#66CADD" cx="634.563" cy="522.164" r="2.812"/>
	</g>
	<g>
		<polyline fill="none" stroke="#66CADD" stroke-width="3" stroke-miterlimit="10" points="623.944,537.578 637.754,551.371 
			1063.012,551.371 		"/>
		<circle fill="#66CADD" cx="623.944" cy="537.578" r="2.812"/>
	</g>
	<g>
		<polyline fill="none" stroke="#66CADD" stroke-width="3" stroke-miterlimit="10" points="500.784,646.229 794.359,646.229 
			838.207,602.402 955.851,602.402 1063.39,494.878 		"/>
		<circle fill="#66CADD" cx="500.784" cy="646.229" r="2.812"/>
	</g>
	<g>
		
			<line fill="none" stroke="#66CADD" stroke-width="3" stroke-miterlimit="10" x1="585.627" y1="584.534" x2="1063.39" y2="584.534"/>
		<circle fill="#66CADD" cx="585.627" cy="584.534" r="2.811"/>
	</g>
	<g>
		<polyline fill="none" stroke="#000000" stroke-width="3" stroke-miterlimit="10" points="547.3,617.135 652.025,617.135 
			700.62,564.509 1063.012,564.509 		"/>
		<circle cx="547.667" cy="617.135" r="2.811"/>
	</g>
	<circle fill="none" stroke="#000000" stroke-width="3" stroke-miterlimit="10" cx="344.563" cy="344.165" r="215"/>
</g>
</svg>
