<?xml version="1.0" encoding="utf-8"?>
<!-- Generator: Adobe Illustrator 16.0.0, SVG Export Plug-In . SVG Version: 6.00 Build 0)  -->
<!DOCTYPE svg PUBLIC "-//W3C//DTD SVG 1.1//EN" "http://www.w3.org/Graphics/SVG/1.1/DTD/svg11.dtd">
<svg version="1.1" id="Layer_1" xmlns="http://www.w3.org/2000/svg" xmlns:xlink="http://www.w3.org/1999/xlink" x="0px" y="0px"
	 width="923px" height="470.5px" viewBox="0 0 923 470.5" enable-background="new 0 0 923 470.5" xml:space="preserve">
<g>
	|	<circle fill="#66CADD"  cx="237.999" cy="236.5" r="138.676"/>
	<circle fill="none" stroke="#000000" stroke-width="10" stroke-miterlimit="10" stroke-dasharray="200,1244.4"  stroke-dashoffset="0"  cx="237.999" cy="236.5" r="230"/>
	<!-- primero -->
	<circle fill="none" stroke="#96D7E4" stroke-width="10" stroke-miterlimit="10" stroke-dasharray="337.55,337.55"  cx="237.999" cy="236.5" r="215"/>
	<!-- segundo -->
	<circle fill="none" stroke="#66CADD" stroke-width="2" stroke-miterlimit="10"  cx="237.999" cy="236.5" r="215"/>
	<!-- tercero -->
	<circle fill="none" stroke="#000000" stroke-width="4" stroke-miterlimit="10"   cx="237.999" cy="236.5" r="200"/>
	<!-- cuarto -->
	<circle fill="none" stroke="#000000" stroke-width="8" stroke-miterlimit="10" stroke-dasharray="28,28"  cx="237.999" cy="236.5" r="195"/>
	<!-- quinto -->
	<circle fill="none" stroke="#96D7E4" stroke-width="2" stroke-miterlimit="10" stroke-dasharray="10,5" cx="237.999" cy="236.5" r="180.956"/>
	<!-- sexto -->
	<circle fill="none" stroke="#96D7E4" stroke-width="20" stroke-miterlimit="10" stroke-dasharray="251.2,251.2"  cx="237.999" cy="236.5" r="160"/>
	<!-- septimo -->
	<circle fill="none" stroke="#66CADD" stroke-width="4" stroke-miterlimit="10"  cx="237.999" cy="236.5" r="162"/>
	<!-- octavo -->
	<circle fill="none" stroke="#66CADD" stroke-width="2" stroke-miterlimit="10"  cx="237.999" cy="236.5" r="157"/>
	<!-- noveno -->
	<!-- <circle fill="none" stroke="#96D7E4" stroke-width="4" stroke-miterlimit="10" cx="687.03" cy="236.214" r="130.22"/> -->
	<circle fill="none" stroke="#000000" stroke-width="3" stroke-miterlimit="10" stroke-dasharray="10,5"  cx="237.999" cy="236.5" r="145"/>
	<!-- decimo -->
	<circle fill="none" stroke="#000000" stroke-width="2" stroke-miterlimit="10"  cx="237.999" cy="236.5" r="143"/>
	<!-- onceavo -->
	<g>
		<polyline fill="none" stroke="#66CADD" stroke-width="2" stroke-miterlimit="10" points="432.436,361.879 589.773,361.879 
			639.533,417.037 832.992,417.037 870.594,367.277 		"/>
		<circle fill="#66CADD" cx="432.436" cy="361.879" r="3.117"/>
	</g>
	<g>
		
			<line fill="none" stroke="#66CADD" stroke-width="2" stroke-miterlimit="10" x1="894.804" y1="396.053" x2="403.265" y2="396.053"/>
		<circle fill="#66CADD" cx="403.265" cy="396.053" r="3.117"/>
	</g>
	<g>
		<polyline fill="none" stroke="#66CADD" stroke-width="2" stroke-miterlimit="10" points="839.09,337.023 731.066,337.023 
			710.451,313.57 454.817,313.57 		"/>
		<circle fill="#66CADD" cx="454.817" cy="313.57" r="3.117"/>
	</g>
	<g>
		
			<line fill="none" stroke="#000000" stroke-width="2" stroke-miterlimit="10" x1="853.404" y1="345.379" x2="440.643" y2="345.379"/>
		<circle cx="442.366" cy="345.379" r="3.117"/>
	</g>
	<g>
		
			<line fill="none" stroke="#000000" stroke-width="2" stroke-miterlimit="10" x1="786.773" y1="268.245" x2="464.045" y2="268.245"/>
		<circle cx="466.494" cy="268.245" r="3.117"/>
	</g>
	<g>
		<polyline fill="none" stroke="#66CADD" stroke-width="2" stroke-miterlimit="10" points="817.597,304.289 686.875,304.289 
			666.26,280.232 465.08,280.232 		"/>
		<circle fill="#66CADD" cx="465.08" cy="280.232" r="3.117"/>
	</g>
	<g>
		<polyline fill="none" stroke="#66CADD" stroke-width="2" stroke-miterlimit="10" points="794.1,276.362 697.428,276.362 
			681.152,256.937 466.494,256.937 		"/>
		<circle fill="#66CADD" cx="466.494" cy="256.937" r="3.117"/>
	</g>
	<g>
		
			<line fill="none" stroke="#000000" stroke-width="2" stroke-miterlimit="10" x1="761.91" y1="238.886" x2="467.999" y2="238.886"/>
		<circle cx="467.999" cy="238.886" r="3.117"/>
	</g>
	<g>
		
			<line fill="none" stroke="#66CADD" stroke-width="2" stroke-miterlimit="10" x1="744.801" y1="218.912" x2="467.373" y2="218.912"/>
		<circle fill="#66CADD" cx="467.373" cy="218.912" r="3.117"/>
	</g>
	<g>
		
			<line fill="none" stroke="#66CADD" stroke-width="2" stroke-miterlimit="10" x1="731.52" y1="201.983" x2="464.045" y2="201.983"/>
		<circle fill="#66CADD" cx="465.045" cy="201.983" r="3.117"/>
	</g>
	<g>
		<polyline fill="none" stroke="#000000" stroke-width="2" stroke-miterlimit="10" points="715.35,182.763 563.57,182.763 
			542.347,159.097 455.077,159.097 		"/>
		<circle cx="455.077" cy="159.097" r="3.117"/>
	</g>
	<g>
		<line fill="none" stroke="#66CADD" stroke-width="2" stroke-miterlimit="10" x1="677.5" y1="137.616" x2="447.158" y2="137.616"/>
		<circle fill="#66CADD" cx="450.275" cy="146.348" r="3.117"/>
	</g>
	<g>
		<polyline fill="none" stroke="#66CADD" stroke-width="2" stroke-miterlimit="10" points="670.29,129.208 591.229,129.208 
			574.09,146.348 450.275,146.348 		"/>
		<circle fill="#66CADD" cx="447.158" cy="137.778" r="3.117"/>
	</g>
</g>
</svg>
