<?xml version="1.0" encoding="utf-8"?>
<!-- Generator: Adobe Illustrator 16.0.0, SVG Export Plug-In . SVG Version: 6.00 Build 0)  -->
<!DOCTYPE svg PUBLIC "-//W3C//DTD SVG 1.1//EN" "http://www.w3.org/Graphics/SVG/1.1/DTD/svg11.dtd">
<svg version="1.1" id="Layer_1" xmlns="http://www.w3.org/2000/svg" xmlns:xlink="http://www.w3.org/1999/xlink" x="0px" y="0px"
	 width="1023px" height="692px" viewBox="0 0 1023 692" enable-background="new 0 0 1023 692" xml:space="preserve">
	 <!-- <svg version="1.1" id="Layer_1" xmlns="http://www.w3.org/2000/svg" xmlns:xlink="http://www.w3.org/1999/xlink" x="0px" y="0px"
	 width="692px" height="692px" viewBox="0 0 692 692" enable-background="new 0 0 692 692" xml:space="preserve"> -->
	<g>
		<polyline fill="none" stroke="#66CADD" stroke-width="4" stroke-miterlimit="10" points="576.498,93.563 696.973,93.563 
			719.738,70.779 		"/>
		<circle fill="#66CADD" cx="719.738" cy="70.779" r="2.811"/>
	</g>
	<g>
		<polyline fill="none" stroke="#000000" stroke-width="3" stroke-miterlimit="10" points="633.018,160.571 689.195,160.571 
			706.668,143.085 		"/>
		<circle cx="706.668" cy="143.085" r="2.811"/>
	</g>
	<g>
		<polyline fill="none" stroke="#66CADD" stroke-width="4" stroke-miterlimit="10" points="608.801,127.273 623.025,127.273 
			645.586,149.812 812.244,149.812 850.693,188.277 		"/>
		<circle fill="#66CADD" cx="850.693" cy="188.277" r="2.811"/>
	</g>
	<g>
		<polyline fill="none" stroke="#000000" stroke-width="3" stroke-miterlimit="10" points="656.816,203.73 778.955,203.73 
			807.146,233.248 		"/>
		<circle cx="807.146" cy="233.248" r="2.811"/>
	</g>
	<g>
		<polyline fill="none" stroke="#66CADD" stroke-width="4" stroke-miterlimit="10" points="646.693,183.528 673.047,183.528 
			716.402,226.901 900.455,226.901 930.016,257.661 		"/>
		<circle fill="#66CADD" cx="930.015" cy="257.661" r="2.812"/>
	</g>
	<g>
		<polyline fill="none" stroke="#000000" stroke-width="3" stroke-miterlimit="10" points="670.75,239.15 680.389,239.15 
			704.105,262.877 844.385,262.877 867.363,285.843 		"/>
		<circle cx="867.362" cy="285.843" r="2.812"/>
	</g>
	<g>
		
			<line fill="none" stroke="#000000" stroke-width="3" stroke-miterlimit="10" x1="675.158" y1="253.607" x2="753.279" y2="253.607"/>
		<circle cx="753.279" cy="253.607" r="2.811"/>
	</g>
	<g>
		<polyline fill="none" stroke="#000000" stroke-width="3" stroke-miterlimit="10" points="687.77,346.207 758.221,346.207 
			780.977,323.463 		"/>
		<circle cx="780.977" cy="323.463" r="2.811"/>
	</g>
	<g>
		<g>
			<polyline fill="none" stroke="#66CADD" stroke-width="4" stroke-miterlimit="10" points="684.279,296.767 723.072,335.508 
				944.01,335.508 974.438,305.096 			"/>
		</g>
		<circle fill="#66CADD" cx="974.438" cy="305.096" r="2.811"/>
	</g>
	<g>
		
			<line fill="none" stroke="#66CADD" stroke-width="4" stroke-miterlimit="10" x1="686.139" y1="379.166" x2="812.455" y2="379.166"/>
		<circle fill="#66CADD" cx="812.455" cy="379.166" r="2.811"/>
	</g>
	<g>
		<line fill="none" stroke="#000000" stroke-width="3" stroke-miterlimit="10" x1="681.6" y1="410.123" x2="763.057" y2="410.123"/>
		<circle cx="763.057" cy="410.123" r="2.811"/>
	</g>
	<g>
		
			<line fill="none" stroke="#66CADD" stroke-width="4" stroke-miterlimit="10" x1="679.781" y1="419.262" x2="901.717" y2="419.262"/>
		<circle fill="#66CADD" cx="901.717" cy="419.262" r="2.811"/>
	</g>
	<g>
		<polyline fill="none" stroke="#000000" stroke-width="3" stroke-miterlimit="10" points="663.459,473.047 721.113,473.047 
			744.244,449.912 		"/>
		<circle cx="744.245" cy="449.912" r="2.812"/>
	</g>
	<g>
		<polyline fill="none" stroke="#000000" stroke-width="3" stroke-miterlimit="10" points="646.58,508.011 766.979,508.011 
			782.672,492.318 		"/>
		<circle cx="782.672" cy="492.318" r="2.811"/>
	</g>
	<g>
		<polyline fill="none" stroke="#66CADD" stroke-width="4" stroke-miterlimit="10" points="671.191,451.881 731.205,451.881 
			781.256,500.822 935.334,500.822 965.477,470.68 		"/>
		<circle fill="#66CADD" cx="965.477" cy="470.68" r="2.811"/>
	</g>
	<g>
		
			<line fill="none" stroke="#66CADD" stroke-width="4" stroke-miterlimit="10" x1="636.959" y1="523.664" x2="752.182" y2="523.664"/>
		<circle fill="#66CADD" cx="752.182" cy="523.664" r="2.811"/>
	</g>
	<g>
		<polyline fill="none" stroke="#66CADD" stroke-width="4" stroke-miterlimit="10" points="832.201,519.129 865.959,552.871 
			963.408,552.871 		"/>
		<circle fill="#66CADD" cx="832.2" cy="519.129" r="2.812"/>
		<circle fill="#66CADD" cx="963.407" cy="552.871" r="2.812"/>
	</g>
	<g>
		<polyline fill="none" stroke="#66CADD" stroke-width="4" stroke-miterlimit="10" points="503.99,647.729 797.564,647.729 
			841.412,603.902 959.057,603.902 1014.42,548.555 		"/>
		<circle fill="#66CADD" cx="1014.419" cy="548.555" r="2.812"/>
	</g>
	<g>
		
			<line fill="none" stroke="#66CADD" stroke-width="4" stroke-miterlimit="10" x1="597.832" y1="576.034" x2="805.426" y2="576.034"/>
		<circle fill="#66CADD" cx="805.426" cy="576.034" r="2.811"/>
	</g>
	<g>
		<polyline fill="none" stroke="#000000" stroke-width="3" stroke-miterlimit="10" points="549.947,618.788 655.23,618.635 
			703.826,570.009 758.826,570.009 		"/>
		<circle cx="758.826" cy="570.009" r="2.811"/>
	</g>

</svg>
