<?xml version="1.0" encoding="utf-8"?>
<!-- Generator: Adobe Illustrator 16.0.0, SVG Export Plug-In . SVG Version: 6.00 Build 0)  -->
<!DOCTYPE svg PUBLIC "-//W3C//DTD SVG 1.1//EN" "http://www.w3.org/Graphics/SVG/1.1/DTD/svg11.dtd">
<svg version="1.1" id="Layer_1" xmlns="http://www.w3.org/2000/svg" xmlns:xlink="http://www.w3.org/1999/xlink" x="0px" y="0px"
	 width="923px" height="470.5px" viewBox="0 0 923 470.5" enable-background="new 0 0 923 470.5" xml:space="preserve">
<g>
	<circle fill="#66CADD" cx="687.03" cy="236.214" r="138.676"/>
	<circle fill="none" stroke="#000000" stroke-width="10" stroke-miterlimit="10" stroke-dasharray="200,1244.4"  stroke-dashoffset="560" cx="687.03" cy="236.214" r="230"/>
	<!-- primero -->
	<circle fill="none" stroke="#96D7E4" stroke-width="10" stroke-miterlimit="10" stroke-dasharray="337.55,337.55" cx="687.03" cy="236.214" r="215"/>
	<!-- segundo -->
	<circle fill="none" stroke="#66CADD" stroke-width="2" stroke-miterlimit="10" cx="687.03" cy="236.214" r="215"/>
	<!-- tercero -->
	<circle fill="none" stroke="#000000" stroke-width="4" stroke-miterlimit="10"  cx="687.03" cy="236.214" r="200"/>
	<!-- cuarto -->
	<circle fill="none" stroke="#000000" stroke-width="8" stroke-miterlimit="10" stroke-dasharray="28,28" cx="687.03" cy="236.214" r="195"/>
	<!-- quinto -->
	<circle fill="none" stroke="#96D7E4" stroke-width="2" stroke-miterlimit="10" stroke-dasharray="10,5" cx="687.03" cy="236.214" r="180.956"/>
	<!-- sexto -->
	<circle fill="none" stroke="#96D7E4" stroke-width="20" stroke-miterlimit="10" stroke-dasharray="251.2,251.2" cx="687.03" cy="236.214" r="160"/>
	<!-- septimo -->
	<circle fill="none" stroke="#66CADD" stroke-width="4" stroke-miterlimit="10" cx="687.03" cy="236.214" r="162"/>
	<!-- octavo -->
	<circle fill="none" stroke="#66CADD" stroke-width="2" stroke-miterlimit="10" cx="687.03" cy="236.214" r="157"/>
	<!-- noveno -->
	<!-- <circle fill="none" stroke="#96D7E4" stroke-width="4" stroke-miterlimit="10" cx="687.03" cy="236.214" r="130.22"/> -->
	<circle fill="none" stroke="#000000" stroke-width="3" stroke-miterlimit="10" stroke-dasharray="10,5" cx="687.03" cy="236.214" r="145"/>
	<!-- decimo -->
	<circle fill="none" stroke="#000000" stroke-width="2" stroke-miterlimit="10" cx="687.03" cy="236.214" r="143"/>
	<!-- onceavo -->
	<g>
		<polyline fill="none" stroke="#66CADD" stroke-width="2" stroke-miterlimit="10" points="498.154,103.293 206.296,103.293 
			155.629,30.841 7.276,30.841 "/>
		<circle fill="#66CADD" cx="537.629" cy="61.639" r="3.117"/>
	</g>
	<circle fill="#66CADD" cx="498.154" cy="103.293" r="3.117"/>
	<g>
		<line fill="none" stroke="#66CADD" stroke-width="2" stroke-miterlimit="10" x1="32.296" y1="61.639" x2="537.629" y2="61.639"/>
	</g>
	<g>
		<polyline fill="none" stroke="#000000" stroke-width="2" stroke-miterlimit="10" points="509.076,89.329 161.229,89.329 
			152.832,77.172 46.629,77.172 		"/>
		<circle cx="509.076" cy="89.329" r="3.117"/>
	</g>
	<g>
		<line fill="none" stroke="#66CADD" stroke-width="2" stroke-miterlimit="10" x1="82.107" y1="120.719" x2="485.78" y2="120.719"/>
		<circle fill="#66CADD" cx="485.78" cy="120.719" r="3.117"/>
	</g>
	<g>
		<polyline fill="none" stroke="#66CADD" stroke-width="2" stroke-miterlimit="10" points="100.198,141.633 165.369,141.633 
			186.814,166.493 467.395,166.493 		"/>
		<circle fill="#66CADD" cx="467.395" cy="166.493" r="3.117"/>
	</g>
	<g>
		<polyline fill="none" stroke="#66CADD" stroke-width="2" stroke-miterlimit="10" points="130.641,177.815 212.382,177.815 
			233.826,202.212 458.571,202.212 		"/>
		<circle fill="#66CADD" cx="458.571" cy="202.212" r="3.117"/>
	</g>
	<!-- <g>
		
			<line fill="none" stroke="#000000" stroke-width="2" stroke-miterlimit="10" x1="285.963" y1="180.078" x2="462.151" y2="180.078"/>
		<circle cx="462.151" cy="180.078" r="3.117"/>
	</g> -->
	<g>
		<polyline fill="none" stroke="#66CADD" stroke-width="2" stroke-miterlimit="10" points="144.232,193.969 201.119,193.969 
			218.34,209.933 457.946,209.933 		"/>
		<circle fill="#66CADD" cx="457.946" cy="209.933" r="3.117"/>
	</g>
	<g>
		<polyline fill="none" stroke="#000000" stroke-width="2" stroke-miterlimit="10" points="183.139,240.211 341.107,240.211 
			362.473,218.625 457.03,218.625 		"/>
		<circle cx="457.03" cy="218.625" r="3.117"/>
	</g>
	<g>
		
			<line fill="none" stroke="#66CADD" stroke-width="2" stroke-miterlimit="10" x1="200.291" y1="260.597" x2="459.629" y2="260.597"/>
		<circle fill="#66CADD" cx="458.571" cy="260.597" r="3.117"/>
	</g>
	<g>
		
			<line fill="none" stroke="#66CADD" stroke-width="2" stroke-miterlimit="10" x1="214.584" y1="277.585" x2="460.629" y2="277.585"/>
		<circle fill="#66CADD" cx="460.629" cy="277.585" r="3.117"/>
	</g>
	<g>
		<polyline fill="none" stroke="#66CADD" stroke-width="2" stroke-miterlimit="10" points="231.736,297.971 342.227,297.971 
			363.742,321.963 474.237,321.963 		"/>
		<circle fill="#66CADD" cx="474.237" cy="321.963" r="3.117"/>
	</g>
	<g>
		
			<line fill="none" stroke="#000000" stroke-width="2" stroke-miterlimit="10" x1="240.342" y1="309.515" x2="470.56" y2="309.515"/>
		<circle cx="470.56" cy="309.515" r="3.117"/>
	</g>
	<g>
		<polyline fill="none" stroke="#66CADD" stroke-width="2" stroke-miterlimit="10" points="278.283,353.295 314.757,353.295 
			332.758,329.52 476.748,329.52 		"/>
		<circle fill="#66CADD" cx="476.748" cy="329.52" r="3.117"/>
	</g>
</g>
</svg>
