<?xml version="1.0" encoding="utf-8"?>
<!-- Generator: Adobe Illustrator 16.0.0, SVG Export Plug-In . SVG Version: 6.00 Build 0)  -->
<!DOCTYPE svg PUBLIC "-//W3C//DTD SVG 1.1//EN" "http://www.w3.org/Graphics/SVG/1.1/DTD/svg11.dtd">
<svg version="1.1" id="Layer_1" xmlns="http://www.w3.org/2000/svg" xmlns:xlink="http://www.w3.org/1999/xlink" x="0px" y="0px"
	 width="964px" height="500px" viewBox="0 0 964 500" enable-background="new 0 0 964 500" xml:space="preserve">
<g>
	<circle fill="none" stroke="#000000" stroke-width="3" stroke-miterlimit="10" cx="708.99" cy="249.633" r="196.176"/>
	<circle fill="none" stroke="#000000" stroke-width="3" stroke-miterlimit="10" cx="708.99" cy="249.633" r="230"/>
	<circle fill="none" stroke="#96D7E4" stroke-width="4" stroke-miterlimit="10" cx="708.99" cy="249.633" r="216.47"/>
	<circle fill="#66CADD" cx="708.99" cy="249.633" r="138.676"/>
	<circle fill="none" stroke="#000000" stroke-width="3" stroke-miterlimit="10" cx="708.99" cy="249.633" r="145.441"/>
	<circle fill="none" stroke="#96D7E4" stroke-width="4" stroke-miterlimit="10" cx="708.99" cy="249.633" r="180.956"/>
	<circle fill="none" stroke="#66CADD" stroke-width="4" stroke-miterlimit="10" cx="708.99" cy="249.633" r="155.588"/>
	<circle fill="none" stroke="#000000" stroke-width="3" stroke-miterlimit="10" cx="708.99" cy="249.633" r="201.25"/>
	<circle fill="none" stroke="#66CADD" stroke-width="4" stroke-miterlimit="10" cx="708.99" cy="249.633" r="167.426"/>
	<circle fill="none" stroke="#96D7E4" stroke-width="4" stroke-miterlimit="10" cx="708.99" cy="249.633" r="130.22"/>
	<circle fill="none" stroke="#000000" stroke-width="3" stroke-miterlimit="10" cx="708.99" cy="249.633" r="145.441"/>
	<g>
		<polyline fill="none" stroke="#66CADD" stroke-width="2" stroke-miterlimit="10" points="520.114,116.712 217.746,116.712 
			160.589,44.26 29.236,44.26 		"/>
		<circle fill="#66CADD" cx="29.236" cy="44.26" r="3.117"/>
	</g>
	<circle fill="#66CADD" cx="97.831" cy="75.058" r="3.117"/>
	<g>
		<line fill="none" stroke="#66CADD" stroke-width="2" stroke-miterlimit="10" x1="97.831" y1="75.058" x2="203.728" y2="75.058"/>
		<circle fill="#66CADD" cx="203.728" cy="75.058" r="3.117"/>
	</g>
	<g>
		<polyline fill="none" stroke="#000000" stroke-width="2" stroke-miterlimit="10" points="531.036,102.748 183.189,102.748 
			174.792,90.591 54.256,90.591 		"/>
		<circle cx="54.256" cy="90.591" r="3.117"/>
	</g>
	<g>
		<line fill="none" stroke="#66CADD" stroke-width="2" stroke-miterlimit="10" x1="97.831" y1="134.138" x2="507.74" y2="134.138"/>
		<circle fill="#66CADD" cx="97.831" cy="134.138" r="3.117"/>
	</g>
	<g>
		<polyline fill="none" stroke="#66CADD" stroke-width="2" stroke-miterlimit="10" points="107.185,155.052 187.329,155.052 
			208.774,179.912 489.354,179.912 		"/>
		<circle fill="#66CADD" cx="107.185" cy="155.052" r="3.117"/>
	</g>
	<g>
		<polyline fill="none" stroke="#66CADD" stroke-width="2" stroke-miterlimit="10" points="162.495,191.234 234.342,191.234 
			255.786,215.631 480.531,215.631 		"/>
		<circle fill="#66CADD" cx="162.495" cy="191.234" r="3.117"/>
	</g>
	<g>
		
			<line fill="none" stroke="#000000" stroke-width="2" stroke-miterlimit="10" x1="307.923" y1="193.497" x2="484.111" y2="193.497"/>
		<circle cx="309.839" cy="193.497" r="3.117"/>
	</g>
	<g>
		<polyline fill="none" stroke="#66CADD" stroke-width="2" stroke-miterlimit="10" points="107.185,207.388 223.079,207.388 
			240.3,226.352 479.906,226.352 		"/>
		<circle fill="#66CADD" cx="107.185" cy="207.388" r="3.117"/>
	</g>
	<g>
		<polyline fill="none" stroke="#000000" stroke-width="2" stroke-miterlimit="10" points="263.02,253.631 363.067,253.631 
			384.433,232.043 478.99,232.043 		"/>
		<circle cx="263.02" cy="253.631" r="3.117"/>
	</g>
	<g>
		
			<line fill="none" stroke="#66CADD" stroke-width="2" stroke-miterlimit="10" x1="186.894" y1="274.016" x2="481.589" y2="274.016"/>
		<circle fill="#66CADD" cx="186.894" cy="274.016" r="3.117"/>
	</g>
	<g>
		
			<line fill="none" stroke="#66CADD" stroke-width="2" stroke-miterlimit="10" x1="186.894" y1="291.004" x2="482.589" y2="291.004"/>
		<circle fill="#66CADD" cx="186.894" cy="291.004" r="3.117"/>
	</g>
	<g>
		<polyline fill="none" stroke="#66CADD" stroke-width="2" stroke-miterlimit="10" points="263.02,311.391 364.187,311.391 
			385.702,335.382 496.197,335.382 		"/>
		<circle fill="#66CADD" cx="263.02" cy="311.391" r="3.117"/>
	</g>
	<g>
		
			<line fill="none" stroke="#000000" stroke-width="2" stroke-miterlimit="10" x1="218.731" y1="322.934" x2="492.52" y2="322.934"/>
		<circle cx="218.731" cy="322.934" r="3.117"/>
	</g>
	<g>
		<polyline fill="none" stroke="#66CADD" stroke-width="2" stroke-miterlimit="10" points="261.432,366.713 336.717,366.713 
			354.718,342.939 498.708,342.939 		"/>
		<circle fill="#66CADD" cx="261.432" cy="366.713" r="3.117"/>
	</g>
</g>
</svg>
